# xmcd CD database file
#
# Track frame offsets:
#	183
#	48225
#	76480
#	114728
#	161375
#	193415
#	234195
#	274050
#
# Disc length: 4285 seconds
#
# Revision: 0
# Processed by: cddbd v1.5.2PL0 Copyright (c) Steve Scherf et al.
# Submitted via: CDex 1.70beta2
#
DISCID=6410bb08
DTITLE=Roman Schwaller and Mel Lewis - Basic Sounds 005
DYEAR=1992
DGENRE=Jazz
TTITLE0=Beautiful Love
TTITLE1=Body&Soul
TTITLE2=Broadway
TTITLE3=Love Someone You Like
TTITLE4=La Ballade pour Pipette
TTITLE5=Strange
TTITLE6=Moby Dick Swings Again
TTITLE7=Just A Moment
EXTD=YEAR: 1992
EXTT0=
EXTT1=
EXTT2=
EXTT3=
EXTT4=
EXTT5=
EXTT6=
EXTT7=
PLAYORDER=
